<?xml version="1.0" encoding="UTF-8" standalone="no"?>
<!-- Created with Inkscape (http://www.inkscape.org/) -->

<svg
   xmlns:dc="http://purl.org/dc/elements/1.1/"
   xmlns:cc="http://creativecommons.org/ns#"
   xmlns:rdf="http://www.w3.org/1999/02/22-rdf-syntax-ns#"
   xmlns:svg="http://www.w3.org/2000/svg"
   xmlns="http://www.w3.org/2000/svg"
   xmlns:sodipodi="http://sodipodi.sourceforge.net/DTD/sodipodi-0.dtd"
   xmlns:inkscape="http://www.inkscape.org/namespaces/inkscape"
   id="svg4212"
   version="1.1"
   inkscape:version="0.91 r13725"
   width="518"
   height="336"
   viewBox="0 0 518 336"
   sodipodi:docname="logo.svg">
  <metadata
     id="metadata4218">
    <rdf:RDF>
      <cc:Work
         rdf:about="">
        <dc:format>image/svg+xml</dc:format>
        <dc:type
           rdf:resource="http://purl.org/dc/dcmitype/StillImage" />
        <dc:title />
      </cc:Work>
    </rdf:RDF>
  </metadata>
  <defs
     id="defs4216">
    <clipPath
       clipPathUnits="userSpaceOnUse"
       id="clipPath5164">
      <path
         sodipodi:nodetypes="cssscsscsc"
         inkscape:connector-curvature="0"
         id="path5166"
         d="m 101.5,140 c 0,0 -6.12655,-40.91195 24.5,-60.5 32.93329,-21.06339 67.5,-3.5 76.5,8.5 0,0 27.63878,-77.437331 109,-73 112.54707,6.138165 108,125 108,125 0,0 73.61934,11.99357 72.5,89.5 -0.94826,65.66009 -50,91 -82.5,92.5 -40.46926,1.86781 -310.5,-1 -310.5,-1 0,0 -72.05409,-16.8038 -72.5,-85.5 -0.55823,-85.9996 75,-95.5 75,-95.5 z"
         style="fill:#f88734;fill-opacity:1;fill-rule:evenodd;stroke:none;stroke-width:1px;stroke-linecap:butt;stroke-linejoin:miter;stroke-opacity:1" />
    </clipPath>
    <clipPath
       clipPathUnits="userSpaceOnUse"
       id="clipPath5216">
      <path
         sodipodi:nodetypes="cssscsscsc"
         inkscape:connector-curvature="0"
         id="path5218"
         d="m 742.40118,-37.728432 c 0,0 -33.26124,-24.596992 -25.45584,-60.104076 8.39329,-38.181422 45.25483,-50.204582 60.10408,-48.083262 0,0 -35.2129,-74.30003 25.45584,-128.69343 83.92313,-75.24246 164.75588,12.02081 164.75588,12.02081 0,0 60.53746,-43.576 114.55126,12.02082 45.7582,47.09921 28.9914,99.70205 7.0711,123.74368 -27.2953,29.936833 -220.26376,218.849553 -220.26376,218.849553 0,0 -62.83201,39.067857 -111.72287,-9.192389 C 695.69124,22.417102 742.40118,-37.728432 742.40118,-37.728432 Z"
         style="fill:#f88734;fill-opacity:1;fill-rule:evenodd;stroke:none;stroke-width:1px;stroke-linecap:butt;stroke-linejoin:miter;stroke-opacity:1" />
    </clipPath>
    <clipPath
       clipPathUnits="userSpaceOnUse"
       id="clipPath5228">
      <path
         style="fill:none;fill-rule:evenodd;stroke:none;stroke-width:1px;stroke-linecap:butt;stroke-linejoin:miter;stroke-opacity:1"
         d="m 901.85376,-15.454568 66.46804,18.3847761 188.0904,-164.7558781 -57.6292,-160.8668 -260.21529,50.20459 31.11269,43.84062 -47.0226,109.9551 59.39697,68.589359 z"
         id="path5230"
         inkscape:connector-curvature="0" />
    </clipPath>
    <clipPath
       clipPathUnits="userSpaceOnUse"
       id="clipPath5294">
      <path
         sodipodi:nodetypes="cssscsscsc"
         inkscape:connector-curvature="0"
         id="path5296"
         d="m 110.31258,137.34447 c 0,0 -5.86628,-39.280742 23.45919,-58.087794 31.53423,-20.223568 64.63248,-3.360451 73.25014,8.161095 0,0 26.46463,-74.349813 104.36947,-70.089404 107.76585,5.893429 103.41195,120.016103 103.41195,120.016103 0,0 70.49185,11.51537 69.42006,85.93153 -0.90797,63.04215 -47.8759,87.37172 -78.99524,88.81192 -38.75005,1.79333 -300.18192,-0.96013 -300.18192,-0.96013 0,0 -66.599297,-11.81324 -66.547504,-82.09102 0.06085,-82.57241 71.813854,-91.6923 71.813854,-91.6923 z"
         style="fill:#f09046;fill-opacity:1;fill-rule:evenodd;stroke:none;stroke-width:1px;stroke-linecap:butt;stroke-linejoin:miter;stroke-opacity:1" />
    </clipPath>
  </defs>
  <sodipodi:namedview
     pagecolor="#ffffff"
     bordercolor="#666666"
     borderopacity="1"
     objecttolerance="10"
     gridtolerance="10"
     guidetolerance="10"
     inkscape:pageopacity="0"
     inkscape:pageshadow="2"
     inkscape:window-width="1920"
     inkscape:window-height="1017"
     id="namedview4214"
     showgrid="false"
     inkscape:zoom="1"
     inkscape:cx="214.66954"
     inkscape:cy="111.88551"
     inkscape:window-x="-8"
     inkscape:window-y="-8"
     inkscape:window-maximized="1"
     inkscape:current-layer="svg4212" />
  <path
     style="fill:#f09046;fill-opacity:1;fill-rule:evenodd;stroke:none;stroke-width:1px;stroke-linecap:butt;stroke-linejoin:miter;stroke-opacity:1"
     d="m 101.5,140 c 0,0 -6.12655,-40.91195 24.5,-60.5 32.93329,-21.06339 67.5,-3.5 76.5,8.5 0,0 27.63878,-77.437331 109,-73 112.54707,6.138165 108,125 108,125 0,0 73.61934,11.99357 72.5,89.5 -0.94826,65.66009 -50,91 -82.5,92.5 -40.46926,1.86781 -313.5,-1 -313.5,-1 0,0 -69.55409,-12.3038 -69.5,-85.5 0.06355,-86.00139 75,-95.5 75,-95.5 z"
     id="path4224"
     inkscape:connector-curvature="0"
     sodipodi:nodetypes="cssscsscsc" />
  <g
     inkscape:groupmode="layer"
     id="layer1"
     inkscape:label="Layer 1" />
  <g
     id="g5238"
     clip-path="url(#clipPath5294)"
     transform="matrix(1.0443667,0,0,1.0415269,-13.706787,-3.0479604)">
    <g
       clip-path="url(#clipPath5228)"
       transform="matrix(0.70710678,0.70710678,-0.70710678,0.70710678,-450.13494,-358.27888)"
       id="g5207">
      <rect
         y="-155.81067"
         x="832.18933"
         height="44.82135"
         width="566.02136"
         id="rect5199"
         style="fill:#f8c620;fill-opacity:1;stroke:none;stroke-width:0.97865069;stroke-opacity:1" />
      <rect
         y="-111.41068"
         x="832.38934"
         height="44.82135"
         width="566.02136"
         id="rect5201"
         style="fill:#89cd26;fill-opacity:1;stroke:none;stroke-width:0.97865069;stroke-opacity:1" />
      <rect
         style="fill:#6c9a9f;fill-opacity:1;stroke:none;stroke-width:0.97865069;stroke-opacity:1"
         id="rect5203"
         width="566.02136"
         height="44.82135"
         x="832.58936"
         y="-67.010674" />
      <rect
         y="-244.85751"
         x="850.2879"
         height="45.068176"
         width="548.12274"
         id="rect5205"
         style="fill:#ee5033;fill-opacity:1;stroke:none;stroke-width:0.97865069;stroke-opacity:1" />
    </g>
  </g>
  <circle
     style="fill-opacity:1;stroke:#181818;stroke-opacity:1;fill:#181818;stroke-width:2;stroke-miterlimit:4;stroke-dasharray:none"
     id="path5028-6"
     cx="181.17932"
     cy="260.96329"
     r="37.748344" />
  <circle
     style="fill-opacity:1;stroke:#181818;stroke-opacity:1;fill:#181818;stroke-width:2;stroke-miterlimit:4;stroke-dasharray:none"
     id="path5028-5-3"
     cx="292.43756"
     cy="227.51959"
     r="37.748344" />
  <path
     style="fill:#181818;fill-opacity:1;fill-rule:evenodd;stroke:#181818;stroke-width:2;stroke-linecap:butt;stroke-linejoin:miter;stroke-miterlimit:4;stroke-dasharray:none;stroke-opacity:1"
     d="m 218.9,262.39441 0,-108.38477 89.6,-25.82781 0,69.2053 21.55,30.35844 0,-150.88824 -133.05,38.41059 0,130.79471 z"
     id="path5045-5"
     inkscape:connector-curvature="0"
     sodipodi:nodetypes="ccccccccc" />
  <path
     style="fill:none;fill-rule:evenodd;stroke:none;stroke-width:1px;stroke-linecap:butt;stroke-linejoin:miter;stroke-opacity:1"
     d="M 124.5,238 207,246.5 211,141 322.5,95 338,57.5 l -45.5,-13 -120,84 L 128,218 Z"
     id="path5220"
     inkscape:connector-curvature="0" />
</svg>
